{
    "asset" : {
        "generator" : "Khronos glTF Blender I/O v1.8.19",
        "version" : "2.0"
    },
    "scene" : 0,
    "scenes" : [
        {
            "name" : "Scene",
            "nodes" : [
                0
            ]
        }
    ],
    "nodes" : [
        {
            "mesh" : 0,
            "name" : "Glasses",
            "rotation" : [
                0.7071068286895752,
                0,
                0,
                0.7071067094802856
            ],
            "scale" : [
                10.5,
                10.5,
                10.5
            ],
            "translation" : [
                0,
                2.8026630878448486,
                0.7763407230377197
            ]
        }
    ],
    "materials" : [
        {
            "doubleSided" : true,
            "name" : "oculos",
            "pbrMetallicRoughness" : {
                "baseColorTexture" : {
                    "index" : 0
                },
                "metallicFactor" : 0,
                "roughnessFactor" : 0.525658369064331
            }
        }
    ],
    "meshes" : [
        {
            "name" : "Glasses",
            "primitives" : [
                {
                    "attributes" : {
                        "POSITION" : 0,
                        "NORMAL" : 1,
                        "TEXCOORD_0" : 2
                    },
                    "indices" : 3,
                    "material" : 0
                }
            ]
        }
    ],
    "textures" : [
        {
            "sampler" : 0,
            "source" : 0
        }
    ],
    "images" : [
        {
            "bufferView" : 4,
            "mimeType" : "image/png",
            "name" : "Image_0"
        }
    ],
    "accessors" : [
        {
            "bufferView" : 0,
            "componentType" : 5126,
            "count" : 1864,
            "max" : [
                0.7782109975814819,
                0.48687300086021423,
                0.24887000024318695
            ],
            "min" : [
                -0.7687879800796509,
                -0.8681039810180664,
                -0.25847500562667847
            ],
            "type" : "VEC3"
        },
        {
            "bufferView" : 1,
            "componentType" : 5126,
            "count" : 1864,
            "type" : "VEC3"
        },
        {
            "bufferView" : 2,
            "componentType" : 5126,
            "count" : 1864,
            "type" : "VEC2"
        },
        {
            "bufferView" : 3,
            "componentType" : 5123,
            "count" : 8856,
            "type" : "SCALAR"
        }
    ],
    "bufferViews" : [
        {
            "buffer" : 0,
            "byteLength" : 22368,
            "byteOffset" : 0
        },
        {
            "buffer" : 0,
            "byteLength" : 22368,
            "byteOffset" : 22368
        },
        {
            "buffer" : 0,
            "byteLength" : 14912,
            "byteOffset" : 44736
        },
        {
            "buffer" : 0,
            "byteLength" : 17712,
            "byteOffset" : 59648
        },
        {
            "buffer" : 0,
            "byteLength" : 31578,
            "byteOffset" : 77360
        }
    ],
    "samplers" : [
        {
            "magFilter" : 9729,
            "minFilter" : 9987
        }
    ],
    "buffers" : [
        {
            "byteLength" : 108940,
            "uri" : "data:application/octet-stream;base64,"
        }
    ]
}
